# xmcd CD database file
#
# Track frame offsets:
#	150
#	12546
#	25710
#	36840
#	49218
#	61291
#	72181
#	83176
#	95837
#	105719
#	117270
#	128091
#	140680
#	153767
#	165979
#	177666
#	189580
#	201990
#	213712
#	224514
#
# Disc length: 3148 seconds
#
# Revision: 0
# Processed by: cddbd v1.5.1PL2 Copyright (c) Steve Scherf et al.
# Submitted via: CDex 1.51
#
DISCID=2b0c4a14
DTITLE=Hank Williams - The Best of Hank Williams
DYEAR=1900
DGENRE=Country
TTITLE0=Cold Cold Heart
TTITLE1=Hey Good Looking
TTITLE2=Crazy Heart
TTITLE3=Love Sick Blues
TTITLE4=Long Gone Lonesome Blues
TTITLE5=Why Don't You Love Me
TTITLE6=I'll Never Get Out Of This World Alive
TTITLE7=I'm So Lonesome I Could Cry
TTITLE8=Honky Tonk Blues
TTITLE9=My Bucket's Got A Hole In It
TTITLE10=Moanin' The Blues
TTITLE11=Move It Over
TTITLE12=Jambalaya (On The Bayou)
TTITLE13=Your Cheatin' Heart
TTITLE14=Kaw-Liga
TTITLE15=Take These Chains From My Heart
TTITLE16=Half As Much
TTITLE17=Settin' The Woods On Fire
TTITLE18=I Can't Help It (If I'm Still In Love With You)
TTITLE19=You Win Again
EXTD=
EXTT0=
EXTT1=
EXTT2=
EXTT3=
EXTT4=
EXTT5=
EXTT6=
EXTT7=
EXTT8=
EXTT9=
EXTT10=
EXTT11=
EXTT12=
EXTT13=
EXTT14=
EXTT15=
EXTT16=
EXTT17=
EXTT18=
EXTT19=
PLAYORDER=
